<svg width="155" height="83" viewBox="0 0 155 83" fill="none" xmlns="http://www.w3.org/2000/svg">
<path d="M12 35C12 15.67 27.67 0 47 0H107C126.33 0 142 15.67 142 35V83H12V35Z" fill="#8691C9"/>
<path d="M60.1007 16.5L60.1007 27L61.8707 27L61.8707 22.695L66.6407 22.695L66.6407 21.12L61.8707 21.12L61.8707 18.09L67.1357 18.09L67.1507 16.5L60.1007 16.5ZM69.4786 15.705C68.9086 15.705 68.4736 16.14 68.4736 16.74C68.4736 17.325 68.9086 17.76 69.4786 17.76C70.0486 17.76 70.4836 17.325 70.4836 16.74C70.4836 16.14 70.0486 15.705 69.4786 15.705ZM68.6236 19.02L68.6236 27L70.3336 27L70.3336 19.02L68.6236 19.02ZM77.5513 18.96C76.2013 18.96 75.1813 19.44 74.6113 20.55L74.6113 19.02L72.8863 19.02L72.8863 27L74.6113 27L74.6113 22.755C74.7313 21.51 75.5563 20.595 76.8763 20.58C78.0763 20.58 78.7963 21.315 78.7963 22.515L78.7963 27L80.5213 27L80.5213 22.035C80.5213 20.13 79.4113 18.96 77.5513 18.96ZM88.7126 15.87L88.7126 20.4C88.1276 19.47 87.1676 18.945 85.8776 18.945C83.6276 18.945 82.0826 20.58 82.0826 22.98C82.0826 25.41 83.6126 27.075 85.9076 27.075C87.1826 27.075 88.1426 26.565 88.7126 25.635L88.7126 27L90.4376 27L90.4376 15.87L88.7126 15.87ZM86.2676 25.635C84.8126 25.635 83.8226 24.555 83.8076 23.04C83.8226 21.51 84.8276 20.415 86.2676 20.415C87.7076 20.415 88.7126 21.495 88.7126 23.04C88.7126 24.555 87.7076 25.635 86.2676 25.635ZM46.6369 45L44.2819 41.49C45.6769 40.95 46.4569 39.765 46.4569 38.085C46.4569 35.805 44.9119 34.5 42.2269 34.5L37.9669 34.5L37.9669 45L39.7369 45L39.7369 41.835L42.2269 41.835C42.3919 41.835 42.5569 41.835 42.7069 41.82L44.6269 45L46.6369 45ZM39.7369 40.245L39.7369 36.09L42.2269 36.09C43.8469 36.09 44.7769 36.75 44.7769 38.13C44.7769 39.555 43.8469 40.245 42.2269 40.245L39.7369 40.245ZM51.9868 36.96C49.6168 36.975 47.9518 38.61 47.9518 41.025C47.9518 43.425 49.5718 45.06 52.0318 45.06C53.4118 45.06 54.5518 44.565 55.3318 43.71L54.4168 42.735C53.8318 43.335 53.0368 43.665 52.1668 43.665C50.9068 43.665 49.9618 42.9 49.6918 41.67L55.7218 41.67C55.9318 38.79 54.7918 36.96 51.9868 36.96ZM49.6618 40.41C49.8418 39.135 50.7418 38.34 52.0018 38.34C53.3068 38.34 54.1618 39.12 54.2218 40.41L49.6618 40.41ZM62.0651 39.03L62.6951 37.755C61.9751 37.245 60.9101 36.945 59.9051 36.945C58.3751 36.945 56.9651 37.635 56.9651 39.255C56.9501 42.135 61.1501 41.22 61.1501 42.855C61.1501 43.455 60.5801 43.71 59.8451 43.71C58.9751 43.71 57.8651 43.335 57.1751 42.72L56.5601 43.95C57.3551 44.67 58.6001 45.06 59.7701 45.06C61.3751 45.06 62.8301 44.325 62.8301 42.69C62.8451 39.795 58.6001 40.59 58.6001 39.12C58.6001 38.55 59.0951 38.325 59.7701 38.325C60.4751 38.325 61.3601 38.595 62.0651 39.03ZM68.646 43.17C68.181 43.395 67.806 43.515 67.446 43.515C66.906 43.515 66.591 43.26 66.591 42.435L66.591 38.61L68.946 38.61L68.946 37.32L66.591 37.32L66.591 35.13L64.881 35.13L64.881 37.32L63.756 37.32L63.756 38.61L64.881 38.61L64.881 42.75C64.881 44.385 65.916 45.075 67.116 45.075C67.791 45.075 68.451 44.865 69.081 44.49L68.646 43.17ZM77.1544 45L77.1394 39.765C77.1244 38.01 75.9694 36.96 73.9144 36.96C72.3994 36.96 71.5894 37.305 70.4794 37.965L71.1844 39.165C71.9794 38.625 72.7744 38.355 73.5394 38.355C74.7994 38.355 75.4444 38.955 75.4444 39.96L75.4444 40.2L73.0294 40.2C71.1094 40.215 70.0144 41.145 70.0144 42.6C70.0144 44.01 71.0944 45.075 72.8194 45.075C73.9744 45.075 74.8894 44.73 75.4594 44.025L75.4594 45L77.1544 45ZM73.1794 43.71C72.2194 43.71 71.6344 43.245 71.6344 42.525C71.6344 41.76 72.1594 41.46 73.2844 41.46L75.4444 41.46L75.4444 42.195C75.3544 43.065 74.4094 43.71 73.1794 43.71ZM84.9835 37.02L84.9835 40.95C84.9835 42.345 84.1735 43.41 82.7935 43.44C81.6385 43.44 80.9335 42.705 80.9335 41.505L80.9335 37.02L79.2085 37.02L79.2085 41.985C79.2085 43.89 80.3035 45.06 82.1335 45.06C83.4385 45.045 84.4435 44.55 84.9835 43.44L84.9835 45L86.7085 45L86.7085 37.02L84.9835 37.02ZM90.9883 38.61L90.9883 37.02L89.2633 37.02L89.2633 45L90.9883 45L90.9883 40.83C91.1233 39.465 92.1433 38.52 93.7483 38.61L93.7483 36.96C92.4883 36.96 91.5283 37.53 90.9883 38.61ZM101.324 45L101.309 39.765C101.294 38.01 100.139 36.96 98.0843 36.96C96.5693 36.96 95.7593 37.305 94.6493 37.965L95.3543 39.165C96.1493 38.625 96.9443 38.355 97.7093 38.355C98.9693 38.355 99.6143 38.955 99.6143 39.96L99.6143 40.2L97.1993 40.2C95.2793 40.215 94.1843 41.145 94.1843 42.6C94.1843 44.01 95.2643 45.075 96.9893 45.075C98.1443 45.075 99.0593 44.73 99.6293 44.025L99.6293 45L101.324 45ZM97.3493 43.71C96.3893 43.71 95.8043 43.245 95.8043 42.525C95.8043 41.76 96.3293 41.46 97.4543 41.46L99.6143 41.46L99.6143 42.195C99.5243 43.065 98.5793 43.71 97.3493 43.71ZM108.298 36.96C106.948 36.96 105.928 37.44 105.358 38.55L105.358 37.02L103.633 37.02L103.633 45L105.358 45L105.358 40.755C105.478 39.51 106.303 38.595 107.623 38.58C108.823 38.58 109.543 39.315 109.543 40.515L109.543 45L111.268 45L111.268 40.035C111.268 38.13 110.158 36.96 108.298 36.96ZM117.66 43.17C117.195 43.395 116.82 43.515 116.46 43.515C115.92 43.515 115.605 43.26 115.605 42.435L115.605 38.61L117.96 38.61L117.96 37.32L115.605 37.32L115.605 35.13L113.895 35.13L113.895 37.32L112.77 37.32L112.77 38.61L113.895 38.61L113.895 42.75C113.895 44.385 114.93 45.075 116.13 45.075C116.805 45.075 117.465 44.865 118.095 44.49L117.66 43.17Z" fill="white"/>
</svg>
