<svg width="377" height="368" viewBox="0 0 377 368" fill="none" xmlns="http://www.w3.org/2000/svg">
<g filter="url(#filter0_d_4_715)">
<path d="M49.5956 209.629L237.869 201.099L237.826 175.872L49.5066 165.601C46.6547 165.448 43.805 165.877 41.131 166.861C38.457 167.846 36.0146 169.365 33.9527 171.328C31.8908 173.29 30.2525 175.654 29.1376 178.276C28.0226 180.897 27.4543 183.721 27.4673 186.576L27.4851 188.599C27.4999 191.443 28.0912 194.257 29.2231 196.873C30.355 199.488 32.0041 201.85 34.0708 203.816C36.1374 205.781 38.5788 207.31 41.2472 208.309C43.9155 209.308 46.7555 209.758 49.5956 209.629Z" fill="#564162"/>
<path d="M322.198 209.959L255.535 209.71C254.698 209.716 253.867 209.556 253.09 209.239C252.313 208.922 251.606 208.455 251.009 207.865C250.411 207.274 249.936 206.572 249.61 205.799C249.285 205.026 249.115 204.197 249.111 203.36L249.098 201.985C249.084 200.305 249.738 198.692 250.915 197.5C252.093 196.309 253.698 195.637 255.378 195.632L322.191 195.91C323.114 195.908 324.026 195.725 324.875 195.37C325.725 195.015 326.495 194.496 327.142 193.842C327.788 193.187 328.299 192.411 328.644 191.558C328.989 190.704 329.161 189.79 329.152 188.867L329.134 186.835C329.13 185.907 328.943 184.988 328.582 184.131C328.222 183.274 327.695 182.495 327.033 181.841C326.371 181.187 325.587 180.669 324.726 180.319C323.864 179.968 322.943 179.791 322.015 179.798L255.293 179.61C254.456 179.616 253.625 179.455 252.848 179.139C252.072 178.822 251.364 178.355 250.767 177.765C250.17 177.174 249.694 176.472 249.369 175.699C249.043 174.926 248.873 174.097 248.869 173.26L248.857 171.885C248.842 170.204 249.496 168.591 250.673 167.4C251.851 166.209 253.456 165.537 255.136 165.532L322.158 165.779C323.081 165.778 323.993 165.594 324.842 165.239C325.692 164.884 326.462 164.365 327.109 163.711C327.755 163.057 328.266 162.281 328.611 161.427C328.956 160.574 329.129 159.659 329.119 158.737L329.121 155.658C329.114 154.735 328.925 153.822 328.564 152.97C328.204 152.118 327.679 151.345 327.021 150.694C326.363 150.043 325.583 149.528 324.727 149.177C323.872 148.827 322.956 148.648 322.033 148.651L250.408 148.356C242.569 148.328 235.059 151.411 229.527 156.928C223.995 162.446 220.892 169.947 220.9 177.785L220.929 197.483C220.936 201.37 221.709 205.221 223.203 208.819C224.697 212.416 226.884 215.688 229.637 218.448C232.391 221.209 235.658 223.403 239.251 224.906C242.845 226.41 246.695 227.192 250.581 227.21L322.237 227.475C323.159 227.473 324.072 227.29 324.921 226.935C325.771 226.58 326.541 226.061 327.187 225.407C327.834 224.753 328.344 223.977 328.689 223.123C329.034 222.27 329.207 221.355 329.198 220.433L329.197 216.995C329.179 215.145 328.436 213.371 327.127 212.055C325.818 210.74 324.048 209.986 322.198 209.959Z" fill="#564162"/>
</g>
<defs>
<filter id="filter0_d_4_715" x="-7.29767" y="-7.27905" width="391.954" height="382.956" filterUnits="userSpaceOnUse" color-interpolation-filters="sRGB">
<feFlood flood-opacity="0" result="BackgroundImageFix"/>
<feColorMatrix in="SourceAlpha" type="matrix" values="0 0 0 0 0 0 0 0 0 0 0 0 0 0 0 0 0 0 127 0" result="hardAlpha"/>
<feOffset/>
<feGaussianBlur stdDeviation="4"/>
<feComposite in2="hardAlpha" operator="out"/>
<feColorMatrix type="matrix" values="0 0 0 0 0 0 0 0 0 0 0 0 0 0 0 0 0 0 0.25 0"/>
<feBlend mode="normal" in2="BackgroundImageFix" result="effect1_dropShadow_4_715"/>
<feBlend mode="normal" in="SourceGraphic" in2="effect1_dropShadow_4_715" result="shape"/>
</filter>
</defs>
</svg>
