<svg width="316" height="357" viewBox="0 0 316 357" fill="none" xmlns="http://www.w3.org/2000/svg">
<g filter="url(#filter0_d_246_275)">
<path d="M94.802 335.993L206.188 138.737L180.458 122.691L49.8881 308.004C47.9133 310.812 46.5327 313.989 45.8304 317.341C45.1281 320.693 45.1188 324.151 45.803 327.503C46.4873 330.855 47.8509 334.032 49.8106 336.84C51.7703 339.648 54.2852 342.028 57.2021 343.835L59.2744 345.107C62.181 346.906 65.4256 348.099 68.8121 348.613C72.1986 349.128 75.6567 348.955 78.9774 348.103C82.2982 347.251 85.4126 345.738 88.1325 343.657C90.8524 341.576 93.1212 338.969 94.802 335.993Z" fill="#7F628F"/>
<path d="M268.996 58.4712L226.227 126.23C225.699 127.087 225.006 127.831 224.188 128.421C223.37 129.01 222.443 129.433 221.46 129.665C220.478 129.897 219.46 129.933 218.464 129.772C217.469 129.611 216.516 129.255 215.66 128.725L214.251 127.861C212.53 126.804 211.304 125.109 210.841 123.15C210.379 121.191 210.718 119.127 211.784 117.411L254.678 49.5185C255.265 48.5775 255.66 47.5312 255.841 46.4393C256.021 45.3475 255.983 44.2317 255.729 43.1557C255.475 42.0798 255.01 41.0648 254.36 40.1689C253.711 39.2731 252.889 38.5139 251.943 37.9349L249.861 36.6573C248.913 36.0691 247.857 35.6738 246.754 35.4945C245.651 35.3151 244.522 35.3552 243.433 35.6123C242.345 35.8694 241.317 36.3384 240.411 36.9923C239.504 37.6462 238.736 38.472 238.152 39.4219L195.407 107.28C194.879 108.136 194.185 108.88 193.367 109.47C192.549 110.059 191.622 110.482 190.64 110.714C189.657 110.946 188.639 110.982 187.643 110.821C186.648 110.66 185.695 110.304 184.839 109.775L183.431 108.91C181.71 107.853 180.483 106.159 180.02 104.199C179.558 102.24 179.897 100.176 180.963 98.4605L223.96 30.3354C224.547 29.3944 224.942 28.3481 225.122 27.2563C225.302 26.1644 225.264 25.0486 225.01 23.9727C224.756 22.8967 224.291 21.8818 223.642 20.9859C222.992 20.0901 222.171 19.3308 221.225 18.7518L218.089 16.7861C217.144 16.2052 216.093 15.8154 214.996 15.6393C213.898 15.4633 212.776 15.5043 211.693 15.76C210.61 16.0157 209.587 16.4811 208.684 17.1295C207.782 17.778 207.016 18.5968 206.431 19.539L160.449 92.324C155.42 100.292 153.772 109.91 155.865 119.065C157.958 128.22 163.621 136.165 171.612 141.156L191.699 153.69C195.663 156.161 200.08 157.83 204.698 158.602C209.316 159.374 214.044 159.233 218.613 158.188C223.181 157.144 227.501 155.215 231.324 152.512C235.148 149.81 238.4 146.386 240.897 142.438L286.867 69.6034C287.454 68.6624 287.849 67.6161 288.029 66.5243C288.209 65.4324 288.172 64.3166 287.918 63.2407C287.663 62.1648 287.198 61.1498 286.549 60.2539C285.899 59.3581 285.078 58.5989 284.132 58.0199L280.629 55.8286C278.733 54.6669 276.452 54.2929 274.276 54.7871C272.101 55.2813 270.205 56.6042 268.996 58.4712Z" fill="#7F628F"/>
</g>
<defs>
<filter id="filter0_d_246_275" x="-8" y="-8" width="331.194" height="372.147" filterUnits="userSpaceOnUse" color-interpolation-filters="sRGB">
<feFlood flood-opacity="0" result="BackgroundImageFix"/>
<feColorMatrix in="SourceAlpha" type="matrix" values="0 0 0 0 0 0 0 0 0 0 0 0 0 0 0 0 0 0 127 0" result="hardAlpha"/>
<feOffset/>
<feGaussianBlur stdDeviation="4"/>
<feComposite in2="hardAlpha" operator="out"/>
<feColorMatrix type="matrix" values="0 0 0 0 0 0 0 0 0 0 0 0 0 0 0 0 0 0 0.25 0"/>
<feBlend mode="normal" in2="BackgroundImageFix" result="effect1_dropShadow_246_275"/>
<feBlend mode="normal" in="SourceGraphic" in2="effect1_dropShadow_246_275" result="shape"/>
</filter>
</defs>
</svg>
