<svg xmlns="http://www.w3.org/2000/svg" viewBox="0 0 343.49 341.15"><defs><style>.cls-1,.cls-3{fill:#7F628F;}.cls-2{fill:none;stroke:#fff;stroke-width:4px;}.cls-2,.cls-3{stroke-miterlimit:10;}.cls-3{stroke:#564162;}</style></defs><g id="Layer_5" data-name="Layer 5"><path class="cls-1" d="M240.27,267.38l30.31-33-4.21-4.27-33.45,29.82a5,5,0,0,0-.22,7.25l.34.34A5,5,0,0,0,240.27,267.38Z" transform="translate(-48.28 -48.89)"/><path class="cls-1" d="M174.44,239.84l33,30.3,4.27-4.22-29.83-33.43a5,5,0,0,0-7.25-.22l-.35.34A5,5,0,0,0,174.44,239.84Z" transform="translate(-48.28 -48.89)"/><path class="cls-1" d="M202,174l-30.29,33,4.22,4.27,33.42-29.84a5,5,0,0,0,.22-7.26l-.34-.34A5,5,0,0,0,202,174Z" transform="translate(-48.28 -48.89)"/><path class="cls-1" d="M267.81,201.5l-33-30.28-4.27,4.22,29.85,33.41a5,5,0,0,0,7.25.22l.35-.34A5,5,0,0,0,267.81,201.5Z" transform="translate(-48.28 -48.89)"/><path class="cls-1" d="M286.33,221.92,275.11,233a1.5,1.5,0,0,1-2.13,0l-.23-.23a1.5,1.5,0,0,1,0-2.12L284,219.55a1.66,1.66,0,0,0,0-2.35l-.34-.34a1.66,1.66,0,0,0-2.36,0l-11.22,11.1a1.5,1.5,0,0,1-2.13,0l-.23-.23a1.5,1.5,0,0,1,0-2.12L279,214.47a1.66,1.66,0,0,0,0-2.35l-.51-.52a1.66,1.66,0,0,0-2.35,0L264.08,223.5a7,7,0,0,0-.07,9.89l3.27,3.32a7,7,0,0,0,9.9.07l12.06-11.91a1.66,1.66,0,0,0,0-2.35l-.57-.58A1.67,1.67,0,0,0,286.33,221.92Z" transform="translate(-48.28 -48.89)"/><ellipse class="cls-1" cx="215.92" cy="275.37" rx="10.59" ry="13.67" transform="translate(-179.76 184.45) rotate(-45)"/><path class="cls-1" d="M157.92,217.42l11.23-11.1a1.49,1.49,0,0,1,2.12,0l.23.23a1.5,1.5,0,0,1,0,2.12L160.25,219.8a1.67,1.67,0,0,0,0,2.35l.34.34a1.67,1.67,0,0,0,2.36,0l11.23-11.11a1.5,1.5,0,0,1,2.12,0l.23.24a1.5,1.5,0,0,1,0,2.12l-11.23,11.11a1.67,1.67,0,0,0,0,2.35l.51.51a1.66,1.66,0,0,0,2.36,0l12.06-11.91a7,7,0,0,0,.07-9.9L177,202.64a7,7,0,0,0-9.91-.07L155,214.48a1.67,1.67,0,0,0,0,2.35l.57.58A1.67,1.67,0,0,0,157.92,217.42Z" transform="translate(-48.28 -48.89)"/><ellipse class="cls-1" cx="228.63" cy="169.96" rx="10.59" ry="13.67" transform="translate(-101.49 162.56) rotate(-45)"/><circle class="cls-1" cx="173.56" cy="172.53" r="31.54"/><circle class="cls-2" cx="173.56" cy="171.63" r="20.25"/></g><g id="Layer_3" data-name="Layer 3"><path class="cls-3" d="M65.8,129.64c17,5.39,19.81,7.11,26.62,11.72,4.64,3.14,5.46,9.48,7.65,16.73a46.92,46.92,0,0,0,5,11.06c6.88,12.73,18.61,23.92,39.44,23.92,9.42,0,23.34-3.13,28-5.08-12.84,18.24-34.19,27.57-54,23.54C101.13,208,86,194.45,81.39,180.36a182,182,0,0,1-5.64-23.87c-.77-4.64-1.41-9.6-4-15.91A55,55,0,0,0,65.8,129.64Z" transform="translate(-48.28 -48.89)"/><path class="cls-3" d="M178,179.89c-5.14-1.76-15.32-6.08-22.05-11.87-13.88-12-18.12-21.72-20.41-33.36-2.16-11-2.85-39.65-3.71-43.28-1.42-6-8.6-11.6-18-16.86-7.16-4-15.72-7.51-27.45-12.64A86.9,86.9,0,0,1,91.8,74.93c1.64,5,3,10.94,4.44,27.42,1.49,17.6.67,20.06,2.35,32.11,1.29,9.33,1.94,14,3.39,18,5.21,14.46,19.69,30.63,40.47,34.2C159.75,189.65,173.44,182.51,178,179.89Z" transform="translate(-48.28 -48.89)"/><path class="cls-3" d="M131.53,50.2c10.38,4,22.55,9.77,28.21,13.29,8.26,5.15,11.64,8.45,13.83,12.94A26.09,26.09,0,0,1,176.09,87c.16,7.3-4,14.41-4.53,16.11,0,0-4.77,9.68-5.53,29.7-.26,6.66,1.84,24,16.81,43a61.1,61.1,0,0,1-31-20.5,62.24,62.24,0,0,1-12.75-30.9c-.57-4.33-.5-9.06-.36-18.5.21-14,1.18-17.75,1.08-24.25C139.69,74.13,138.16,63.39,131.53,50.2Z" transform="translate(-48.28 -48.89)"/><path class="cls-3" d="M188.18,173a68.85,68.85,0,0,1-13.13-24.33c-.52-1.74-5.47-19.37-.35-38.31.8-2.93,1.6-5.06,4-13.65,2.57-9.11,3.87-13.73,4.55-17.32,1.14-6.11,1.7-15.76-2.63-28.87,6.19,5.57,19.34,18.3,26.42,33.59,3.7,8,10.28,22.18,8.58,40.42C213.28,149.85,193.54,168.2,188.18,173Z" transform="translate(-48.28 -48.89)"/><path class="cls-3" d="M312.42,64.12C306.76,81,305,83.81,300.28,90.55c-3.21,4.59-9.57,5.31-16.85,7.38a47.1,47.1,0,0,0-11.14,4.86c-12.83,6.68-24.2,18.24-24.53,39.06-.15,9.42,2.77,23.39,4.64,28.11-18-13.12-27-34.62-22.69-54.41,3.8-17.33,17.59-32.28,31.74-36.65a182.31,182.31,0,0,1,24-5.26c4.65-.7,9.62-1.26,16-3.73A55.49,55.49,0,0,0,312.42,64.12Z" transform="translate(-48.28 -48.89)"/><path class="cls-3" d="M260.41,175.47c1.84-5.11,6.32-15.23,12.22-21.86,12.18-13.69,22-17.77,33.67-19.88,11-2,39.7-2.24,43.33-3,6-1.32,11.74-8.41,17.15-17.75,4.1-7.1,7.75-15.6,13.06-27.26A85.44,85.44,0,0,1,366.71,91c-5.06,1.56-11,2.87-27.49,4-17.62,1.22-20.06.36-32.14,1.85-9.34,1.15-14,1.72-18.07,3.11-14.54,5-30.94,19.2-34.83,39.93C250.94,157.11,257.86,170.91,260.41,175.47Z" transform="translate(-48.28 -48.89)"/><path class="cls-3" d="M390.82,131.08c-4.22,10.31-10.12,22.39-13.73,28-5.28,8.18-8.63,11.51-13.15,13.63a26,26,0,0,1-10.64,2.35c-7.29,0-14.34-4.23-16-4.78,0,0-9.61-4.92-29.62-6-6.65-.36-24,1.46-43.21,16.14a61.07,61.07,0,0,1,21-30.69,62.24,62.24,0,0,1,31.1-12.27c4.34-.5,9.06-.36,18.5-.07,14,.43,17.73,1.46,24.24,1.46C366.76,138.85,377.53,137.5,390.82,131.08Z" transform="translate(-48.28 -48.89)"/><path class="cls-3" d="M267.15,185.8a69,69,0,0,1,24.52-12.75c1.76-.49,19.46-5.17,38.32.25,2.91.84,5,1.68,13.59,4.24,9.06,2.71,13.66,4.09,17.24,4.82,6.09,1.24,15.73,1.94,28.91-2.17-5.67,6.1-18.6,19-34,25.89-8,3.57-22.34,9.93-40.55,7.94C289.9,211.26,271.87,191.23,267.15,185.8Z" transform="translate(-48.28 -48.89)"/><path class="cls-3" d="M374.08,311.72c-16.79-5.92-19.58-7.73-26.24-12.55-4.54-3.28-5.16-9.64-7.12-17A47.7,47.7,0,0,0,336,271c-6.48-12.94-17.86-24.49-38.68-25.14-9.41-.3-23.42,2.4-28.17,4.2,13.4-17.83,35-26.49,54.75-21.84,17.27,4.07,32,18.09,36.15,32.31a183.36,183.36,0,0,1,4.89,24c.62,4.66,1.1,9.63,3.48,16A55.42,55.42,0,0,0,374.08,311.72Z" transform="translate(-48.28 -48.89)"/><path class="cls-3" d="M263.55,258c5.08,1.91,15.12,6.55,21.67,12.56,13.49,12.38,17.42,22.26,19.35,34,1.82,11.06,1.62,39.72,2.36,43.37,1.23,6.06,8.23,11.87,17.48,17.42,7,4.22,15.48,8,27,13.49a85.37,85.37,0,0,1-5.07-13.22c-1.48-5.08-2.7-11-3.58-27.54-.94-17.63-.05-20.07-1.35-32.17-1-9.36-1.5-14-2.83-18.11-4.75-14.62-18.72-31.24-39.38-35.45C282.05,248.8,268.14,255.51,263.55,258Z" transform="translate(-48.28 -48.89)"/><path class="cls-3" d="M305.9,389.07c-10.24-4.38-22.23-10.47-27.78-14.17-8.09-5.4-11.37-8.81-13.42-13.36a25.92,25.92,0,0,1-2.18-10.67c.06-7.3,4.45-14.28,5-16,0,0,5.06-9.53,6.46-29.52.46-6.64-1.1-24-15.47-43.46a61.05,61.05,0,0,1,30.35,21.46,62.31,62.31,0,0,1,11.79,31.28c.43,4.35.21,9.07-.22,18.51-.65,14-1.73,17.7-1.84,24.21C298.5,364.89,299.69,375.68,305.9,389.07Z" transform="translate(-48.28 -48.89)"/><path class="cls-3" d="M253.12,264.56a69.1,69.1,0,0,1,12.36,24.72c.46,1.76,4.86,19.53-.85,38.31-.88,2.9-1.76,5-4.45,13.51-2.85,9-4.3,13.61-5.09,17.18-1.33,6.06-2.19,15.69,1.73,28.93-6-5.76-18.76-18.9-25.36-34.4-3.45-8.09-9.58-22.49-7.31-40.66C227.31,286.91,247.61,269.19,253.12,264.56Z" transform="translate(-48.28 -48.89)"/><path class="cls-3" d="M125.54,369.51c6.18-16.7,8-19.45,13-26,3.35-4.49,9.72-5,17.07-6.85a47.58,47.58,0,0,0,11.28-4.51c13-6.28,24.76-17.48,25.74-38.28.44-9.41-2-23.46-3.76-28.24,17.62,13.68,25.94,35.45,21,55.09-4.34,17.21-18.59,31.72-32.88,35.64a180.9,180.9,0,0,1-24.11,4.51c-4.67.56-9.65,1-16.08,3.23A55.23,55.23,0,0,0,125.54,369.51Z" transform="translate(-48.28 -48.89)"/><path class="cls-3" d="M181,259.83c-2,5.05-6.79,15-12.89,21.47-12.6,13.3-22.54,17.08-34.27,18.82-11.09,1.65-39.75,1-43.41,1.68-6.08,1.14-12,8.05-17.69,17.21-4.33,7-8.24,15.35-13.91,26.84A86.46,86.46,0,0,1,72.12,341c5.1-1.4,11.06-2.52,27.59-3.15,17.65-.67,20.07.27,32.19-.84,9.37-.86,14.06-1.29,18.15-2.55,14.69-4.52,31.53-18.23,36.06-38.82C189.89,278.48,183.4,264.47,181,259.83Z" transform="translate(-48.28 -48.89)"/><path class="cls-3" d="M49.27,300.13c4.53-10.17,10.81-22.07,14.6-27.55,5.53-8,9-11.23,13.57-13.21a26,26,0,0,1,10.7-2c7.29.18,14.21,4.68,15.88,5.28,0,0,9.45,5.21,29.41,6.92,6.63.56,24-.72,43.7-14.79a61,61,0,0,1-21.93,30,62.27,62.27,0,0,1-31.47,11.3c-4.35.37-9.07.07-18.5-.51-14-.86-17.67-2-24.17-2.21C73.55,293.11,62.75,294.13,49.27,300.13Z" transform="translate(-48.28 -48.89)"/><path class="cls-3" d="M174.58,249.3a68.83,68.83,0,0,1-24.91,12c-1.76.44-19.6,4.56-38.29-1.44-2.88-.93-5-1.84-13.44-4.66-9-3-13.54-4.52-17.09-5.36-6-1.43-15.66-2.43-29,1.27,5.86-5.92,19.19-18.46,34.79-24.82,8.14-3.32,22.64-9.23,40.78-6.67C152.64,223.14,170,243.72,174.58,249.3Z" transform="translate(-48.28 -48.89)"/></g></svg>