<svg width="155" height="83" viewBox="0 0 155 83" fill="none" xmlns="http://www.w3.org/2000/svg">
<path d="M12 35C12 15.67 27.67 0 47 0H107C126.33 0 142 15.67 142 35V83H12V35Z" fill="#BCBBDF"/>
<path d="M67.8403 24L65.4853 20.49C66.8803 19.95 67.6603 18.765 67.6603 17.085C67.6603 14.805 66.1153 13.5 63.4303 13.5L59.1703 13.5L59.1703 24L60.9403 24L60.9403 20.835L63.4303 20.835C63.5953 20.835 63.7603 20.835 63.9103 20.82L65.8303 24L67.8403 24ZM60.9403 19.245L60.9403 15.09L63.4303 15.09C65.0503 15.09 65.9803 15.75 65.9803 17.13C65.9803 18.555 65.0503 19.245 63.4303 19.245L60.9403 19.245ZM76.3851 24L76.3702 18.765C76.3552 17.01 75.2002 15.96 73.1452 15.96C71.6301 15.96 70.8201 16.305 69.7101 16.965L70.4151 18.165C71.2101 17.625 72.0051 17.355 72.7701 17.355C74.0301 17.355 74.6752 17.955 74.6751 18.96L74.6751 19.2L72.2601 19.2C70.3401 19.215 69.2451 20.145 69.2451 21.6C69.2451 23.01 70.3251 24.075 72.0501 24.075C73.2051 24.075 74.1201 23.73 74.6901 23.025L74.6901 24L76.3851 24ZM72.4101 22.71C71.4501 22.71 70.8651 22.245 70.8651 21.525C70.8651 20.76 71.3901 20.46 72.5151 20.46L74.6751 20.46L74.6751 21.195C74.5851 22.065 73.6401 22.71 72.4101 22.71ZM82.7742 22.17C82.3092 22.395 81.9342 22.515 81.5742 22.515C81.0342 22.515 80.7192 22.26 80.7192 21.435L80.7192 17.61L83.0742 17.61L83.0742 16.32L80.7192 16.32L80.7192 14.13L79.0092 14.13L79.0092 16.32L77.8842 16.32L77.8842 17.61L79.0092 17.61L79.0092 21.75C79.0092 23.385 80.0442 24.075 81.2442 24.075C81.9192 24.075 82.5792 23.865 83.2092 23.49L82.7742 22.17ZM87.9997 15.96C85.6297 15.975 83.9647 17.61 83.9647 20.025C83.9647 22.425 85.5847 24.06 88.0447 24.06C89.4247 24.06 90.5647 23.565 91.3447 22.71L90.4297 21.735C89.8447 22.335 89.0497 22.665 88.1797 22.665C86.9197 22.665 85.9747 21.9 85.7047 20.67L91.7347 20.67C91.9447 17.79 90.8047 15.96 87.9997 15.96ZM85.6747 19.41C85.8547 18.135 86.7547 17.34 88.0147 17.34C89.3197 17.34 90.1747 18.12 90.2347 19.41L85.6747 19.41ZM46.4096 42L44.0546 38.49C45.4496 37.95 46.2296 36.765 46.2296 35.085C46.2296 32.805 44.6846 31.5 41.9996 31.5L37.7396 31.5L37.7396 42L39.5096 42L39.5096 38.835L41.9996 38.835C42.1646 38.835 42.3296 38.835 42.4796 38.82L44.3996 42L46.4096 42ZM39.5096 37.245L39.5096 33.09L41.9996 33.09C43.6196 33.09 44.5496 33.75 44.5496 35.13C44.5496 36.555 43.6196 37.245 41.9996 37.245L39.5096 37.245ZM51.7595 33.96C49.3895 33.975 47.7245 35.61 47.7245 38.025C47.7245 40.425 49.3445 42.06 51.8045 42.06C53.1845 42.06 54.3245 41.565 55.1045 40.71L54.1895 39.735C53.6045 40.335 52.8095 40.665 51.9395 40.665C50.6795 40.665 49.7345 39.9 49.4645 38.67L55.4945 38.67C55.7045 35.79 54.5645 33.96 51.7595 33.96ZM49.4345 37.41C49.6145 36.135 50.5145 35.34 51.7745 35.34C53.0795 35.34 53.9345 36.12 53.9945 37.41L49.4345 37.41ZM61.8378 36.03L62.4678 34.755C61.7478 34.245 60.6828 33.945 59.6778 33.945C58.1478 33.945 56.7378 34.635 56.7378 36.255C56.7228 39.135 60.9228 38.22 60.9228 39.855C60.9228 40.455 60.3528 40.71 59.6178 40.71C58.7478 40.71 57.6378 40.335 56.9478 39.72L56.3328 40.95C57.1278 41.67 58.3728 42.06 59.5428 42.06C61.1478 42.06 62.6028 41.325 62.6028 39.69C62.6178 36.795 58.3728 37.59 58.3728 36.12C58.3728 35.55 58.8678 35.325 59.5428 35.325C60.2478 35.325 61.1328 35.595 61.8378 36.03ZM68.4187 40.17C67.9537 40.395 67.5787 40.515 67.2187 40.515C66.6787 40.515 66.3637 40.26 66.3637 39.435L66.3637 35.61L68.7187 35.61L68.7187 34.32L66.3637 34.32L66.3637 32.13L64.6537 32.13L64.6537 34.32L63.5287 34.32L63.5287 35.61L64.6537 35.61L64.6537 39.75C64.6537 41.385 65.6887 42.075 66.8887 42.075C67.5637 42.075 68.2237 41.865 68.8537 41.49L68.4187 40.17ZM76.9271 42L76.9121 36.765C76.8971 35.01 75.7421 33.96 73.6871 33.96C72.1721 33.96 71.3621 34.305 70.2521 34.965L70.9571 36.165C71.7521 35.625 72.5471 35.355 73.3121 35.355C74.5721 35.355 75.2171 35.955 75.2171 36.96L75.2171 37.2L72.8021 37.2C70.8821 37.215 69.7871 38.145 69.7871 39.6C69.7871 41.01 70.8671 42.075 72.5921 42.075C73.7471 42.075 74.6621 41.73 75.2321 41.025L75.2321 42L76.9271 42ZM72.9521 40.71C71.9921 40.71 71.4071 40.245 71.4071 39.525C71.4071 38.76 71.9321 38.46 73.0571 38.46L75.2171 38.46L75.2171 39.195C75.1271 40.065 74.1821 40.71 72.9521 40.71ZM84.7562 34.02L84.7562 37.95C84.7562 39.345 83.9462 40.41 82.5662 40.44C81.4112 40.44 80.7062 39.705 80.7062 38.505L80.7062 34.02L78.9812 34.02L78.9812 38.985C78.9812 40.89 80.0762 42.06 81.9062 42.06C83.2112 42.045 84.2162 41.55 84.7562 40.44L84.7562 42L86.4812 42L86.4812 34.02L84.7562 34.02ZM90.761 35.61L90.761 34.02L89.036 34.02L89.036 42L90.761 42L90.761 37.83C90.896 36.465 91.916 35.52 93.521 35.61L93.521 33.96C92.261 33.96 91.301 34.53 90.761 35.61ZM101.097 42L101.082 36.765C101.067 35.01 99.9121 33.96 97.8571 33.96C96.3421 33.96 95.5321 34.305 94.4221 34.965L95.1271 36.165C95.9221 35.625 96.7171 35.355 97.4821 35.355C98.7421 35.355 99.3871 35.955 99.3871 36.96L99.3871 37.2L96.9721 37.2C95.0521 37.215 93.9571 38.145 93.9571 39.6C93.9571 41.01 95.0371 42.075 96.7621 42.075C97.9171 42.075 98.8321 41.73 99.4021 41.025L99.4021 42L101.097 42ZM97.1221 40.71C96.1621 40.71 95.5771 40.245 95.5771 39.525C95.5771 38.76 96.1021 38.46 97.2271 38.46L99.3871 38.46L99.3871 39.195C99.2971 40.065 98.3521 40.71 97.1221 40.71ZM108.071 33.96C106.721 33.96 105.701 34.44 105.131 35.55L105.131 34.02L103.406 34.02L103.406 42L105.131 42L105.131 37.755C105.251 36.51 106.076 35.595 107.396 35.58C108.596 35.58 109.316 36.315 109.316 37.515L109.316 42L111.041 42L111.041 37.035C111.041 35.13 109.931 33.96 108.071 33.96ZM117.432 40.17C116.967 40.395 116.592 40.515 116.232 40.515C115.692 40.515 115.377 40.26 115.377 39.435L115.377 35.61L117.732 35.61L117.732 34.32L115.377 34.32L115.377 32.13L113.667 32.13L113.667 34.32L112.542 34.32L112.542 35.61L113.667 35.61L113.667 39.75C113.667 41.385 114.702 42.075 115.902 42.075C116.577 42.075 117.237 41.865 117.867 41.49L117.432 40.17Z" fill="white"/>
</svg>
