<svg width="155" height="83" viewBox="0 0 155 83" fill="none" xmlns="http://www.w3.org/2000/svg">
<path d="M12 35C12 15.67 27.67 0 47 0H107C126.33 0 142 15.67 142 35V83H12V35Z" fill="#7F628F"/>
<path d="M61.8511 14.455C58.7161 14.455 56.2861 16.735 56.2861 19.75C56.2861 22.75 58.7161 25.075 61.8511 25.075C64.9861 25.075 67.4161 22.75 67.4161 19.75C67.4161 16.75 64.9861 14.455 61.8511 14.455ZM61.8661 16.045C63.9211 16.045 65.6011 17.665 65.6011 19.75C65.6011 21.835 63.9211 23.485 61.8661 23.485C59.8111 23.485 58.0861 21.835 58.0861 19.75C58.0861 17.665 59.7961 16.045 61.8661 16.045ZM70.9197 18.61L70.9197 17.02L69.1947 17.02L69.1947 25L70.9197 25L70.9197 20.83C71.0547 19.465 72.0747 18.52 73.6797 18.61L73.6797 16.96C72.4197 16.96 71.4597 17.53 70.9197 18.61ZM80.978 13.87L80.978 18.4C80.393 17.47 79.433 16.945 78.143 16.945C75.893 16.945 74.348 18.58 74.348 20.98C74.348 23.41 75.878 25.075 78.173 25.075C79.448 25.075 80.408 24.565 80.978 23.635L80.978 25L82.703 25L82.703 13.87L80.978 13.87ZM78.533 23.635C77.078 23.635 76.088 22.555 76.073 21.04C76.088 19.51 77.093 18.415 78.533 18.415C79.973 18.415 80.978 19.495 80.978 21.04C80.978 22.555 79.973 23.635 78.533 23.635ZM88.6076 16.96C86.2376 16.975 84.5726 18.61 84.5726 21.025C84.5726 23.425 86.1926 25.06 88.6526 25.06C90.0326 25.06 91.1726 24.565 91.9526 23.71L91.0376 22.735C90.4526 23.335 89.6576 23.665 88.7876 23.665C87.5276 23.665 86.5826 22.9 86.3126 21.67L92.3426 21.67C92.5526 18.79 91.4126 16.96 88.6076 16.96ZM86.2826 20.41C86.4626 19.135 87.3626 18.34 88.6226 18.34C89.9276 18.34 90.7826 19.12 90.8426 20.41L86.2826 20.41ZM95.866 18.61L95.866 17.02L94.141 17.02L94.141 25L95.866 25L95.866 20.83C96.001 19.465 97.021 18.52 98.626 18.61L98.626 16.96C97.366 16.96 96.406 17.53 95.866 18.61ZM62.5833 40.765C61.8333 41.215 60.9483 41.485 60.1683 41.485C58.0233 41.485 56.3283 39.85 56.3283 37.75C56.3283 35.665 58.0083 34.03 60.1533 34.03C61.2483 34.03 62.3733 34.48 63.1833 35.23L64.1883 33.925C63.1533 33.025 61.6533 32.455 60.1533 32.455C56.9733 32.455 54.5283 34.75 54.5283 37.75C54.5283 40.75 56.9433 43.075 60.0483 43.075C61.4883 43.075 63.0633 42.52 64.1283 41.71L64.1283 37.84L62.5833 37.84L62.5833 40.765ZM68.2537 36.61L68.2537 35.02L66.5287 35.02L66.5287 43L68.2537 43L68.2537 38.83C68.3887 37.465 69.4087 36.52 71.0137 36.61L71.0137 34.96C69.7537 34.96 68.7937 35.53 68.2537 36.61ZM75.852 34.96C73.377 34.96 71.682 36.595 71.682 38.995C71.682 41.41 73.377 43.06 75.852 43.06C78.312 43.06 80.007 41.41 80.007 38.995C80.007 36.595 78.312 34.96 75.852 34.96ZM75.852 36.43C77.277 36.43 78.282 37.495 78.282 39.025C78.282 40.57 77.277 41.62 75.852 41.62C74.412 41.62 73.407 40.57 73.407 39.025C73.407 37.495 74.412 36.43 75.852 36.43ZM87.327 35.02L87.327 38.95C87.327 40.345 86.517 41.41 85.137 41.44C83.982 41.44 83.277 40.705 83.277 39.505L83.277 35.02L81.552 35.02L81.552 39.985C81.552 41.89 82.647 43.06 84.477 43.06C85.782 43.045 86.787 42.55 87.327 41.44L87.327 43L89.052 43L89.052 35.02L87.327 35.02ZM96.1968 34.96C94.9518 34.96 93.9918 35.47 93.4068 36.4L93.4068 35.02L91.6818 35.02L91.6818 45.91L93.4068 45.91L93.4068 41.62C93.9918 42.55 94.9518 43.06 96.2268 43.06C98.5068 43.06 100.007 41.425 100.007 39.04C100.007 36.61 98.4618 34.96 96.1968 34.96ZM95.8368 41.59C94.4118 41.59 93.4068 40.525 93.4068 38.98C93.4068 37.48 94.4118 36.4 95.8368 36.4C97.2618 36.4 98.2668 37.495 98.2668 38.98C98.2668 40.51 97.2618 41.59 95.8368 41.59Z" fill="white"/>
</svg>
