<svg width="253" height="311" viewBox="0 0 253 311" fill="none" xmlns="http://www.w3.org/2000/svg">
<g filter="url(#filter0_d_246_278)">
<path d="M207.574 266.439L98.4048 91.9278L74.2732 105.298L165.62 289.748C167.003 292.542 168.941 295.027 171.318 297.053C173.694 299.079 176.458 300.602 179.442 301.531C182.426 302.459 185.567 302.773 188.673 302.453C191.78 302.133 194.788 301.187 197.513 299.671L199.483 298.601C202.189 297.075 204.555 295.017 206.437 292.552C208.32 290.087 209.68 287.266 210.437 284.259C211.193 281.253 211.329 278.124 210.837 275.061C210.345 271.998 209.235 269.065 207.574 266.439Z" fill="#7F628F"/>
<path d="M103.948 133.253C127.319 120.039 132.468 84.8534 115.449 54.6636C98.4306 24.4737 65.6881 10.7119 42.3171 23.9258C18.946 37.1396 13.7965 72.3253 30.8153 102.515C47.8341 132.705 80.5766 146.467 103.948 133.253Z" fill="#7F628F"/>
</g>
<defs>
<filter id="filter0_d_246_278" x="-8" y="-8" width="268.07" height="324.307" filterUnits="userSpaceOnUse" color-interpolation-filters="sRGB">
<feFlood flood-opacity="0" result="BackgroundImageFix"/>
<feColorMatrix in="SourceAlpha" type="matrix" values="0 0 0 0 0 0 0 0 0 0 0 0 0 0 0 0 0 0 127 0" result="hardAlpha"/>
<feOffset/>
<feGaussianBlur stdDeviation="4"/>
<feComposite in2="hardAlpha" operator="out"/>
<feColorMatrix type="matrix" values="0 0 0 0 0 0 0 0 0 0 0 0 0 0 0 0 0 0 0.25 0"/>
<feBlend mode="normal" in2="BackgroundImageFix" result="effect1_dropShadow_246_278"/>
<feBlend mode="normal" in="SourceGraphic" in2="effect1_dropShadow_246_278" result="shape"/>
</filter>
</defs>
</svg>
